# xmcd
#
# Track frame offsets: 
#        150
#        18996
#        30975
#        42125
#        56763
#        66272
#        81380
#        92520
#        116261
#        128598
#        141261
#        151476
#        166262
#        180490
#        190413
#        201282
#        212872
#        225615
#        237158
#        252430
#
# Disc length: 3601 seconds
#
# Revision: 0
# Processed by: cddbd v1.5.2PL0 Copyright (c) Steve Scherf et al.
# Submitted via: ExactAudioCopy v0.95b3
#
DISCID=0e0e0f14
DTITLE=The Electric Prunes  - Too Much To Dream - Original Group Recor
DTITLE=dings - CD2 - FLAC
DYEAR=1900
DGENRE=
TTITLE0=01 The Great Banana Hoax - The Great Banana Hoax
TTITLE1=02 Children Of Rain - Children Of Rain
TTITLE2=03  - Wind Up Toys
TTITLE3=04 Antique Doll - Antique Doll
TTITLE4=05 It's Not Fair - It's Not Fair
TTITLE5=06 I Happen To Love You - I Happen To Love You
TTITLE6=07 Dr. Do - Dr. Do Good
TTITLE7=08 - I
TTITLE8=09 - Hideaway
TTITLE9=10 Big City - Big City
TTITLE10=11 Captain Glory - Captain Glory
TTITLE11=12 Long Day's Fight - Long Day's Fight
TTITLE12=13 Everybody Knows (You're Not In Love - Everybody Knows (You
TTITLE12='re Not In Love)
TTITLE13=14 You Never Had It Better - You Never Had It Better
TTITLE14=15 - Shadows
TTITLE15=16 Dr. Do - Dr. Do Good
TTITLE16=17 - Hideaway
TTITLE17=18 Wind - Wind Up Toys
TTITLE18=19 The Great Banana Hoax (Alternate Version - The Great Banan
TTITLE18=a Hoax (Alternate Version)
TTITLE19=20 Long Days Flight - Long Days Flight
EXTD=
EXTT0=
EXTT1=
EXTT2=
EXTT3=
EXTT4=
EXTT5=
EXTT6=
EXTT7=
EXTT8=
EXTT9=
EXTT10=
EXTT11=
EXTT12=
EXTT13=
EXTT14=
EXTT15=
EXTT16=
EXTT17=
EXTT18=
EXTT19=
PLAYORDER=
